<?xml version="1.0" encoding="utf-8"?>
<!-- Generator: Adobe Illustrator 19.1.0, SVG Export Plug-In . SVG Version: 6.00 Build 0)  -->
<svg version="1.1" id="Layer_1" xmlns="http://www.w3.org/2000/svg" xmlns:xlink="http://www.w3.org/1999/xlink" x="0px" y="0px"
	 viewBox="0 0 48 32" style="enable-background:new 0 0 48 32;" xml:space="preserve">
<style type="text/css">
	.st0{fill:#FFFFFF;}
	.st1{fill:#464E59;}
	.st2{fill:#E6E6E5;}
	.st3{fill:#D91F27;}
	.st4{opacity:0.96;}
	.st5{opacity:0.16;fill:#BCBCBC;}
	.st6{fill:#FEE163;}
	.st7{fill:#5D616F;}
	.st8{fill:#B2DAD6;}
	.st9{opacity:0.8;fill:#AED5D0;enable-background:new    ;}
	.st10{fill:#E85144;}
</style>
<g id="XMLID_758_">
	<path id="XMLID_781_" class="st2" d="M12.7,10.3c0.4,0.4,0.4,0.8-0.1,1.2l-0.8,0.8c-0.4,0.4-0.8,0.5-1.2,0.1l-0.9-0.9
		c-0.4-0.4-0.4-0.8,0.1-1.2l0.8-0.8C11,9,11.3,9,11.7,9.3L12.7,10.3z M16.7,4.4C16.3,4,15.9,4,15.5,4.5l-0.8,0.8
		c-0.4,0.4-0.5,0.8-0.1,1.2l0.9,0.9c0.4,0.4,0.8,0.4,1.2-0.1l0.8-0.8C18,6.1,18,5.8,17.6,5.4L16.7,4.4z M31.1,18.1l-13,13
		c-1.3,1.3-2.8,1.3-4.1,0l-13-13c-1.3-1.3-1.3-2.8,0-4.1l13-13c1.3-1.3,2.8-1.3,4.1,0l13,13C32.4,15.3,32.4,16.7,31.1,18.1
		 M9.8,15.4l-2.1-2.1c-1-1-2.1-1-3.2,0.1l-0.8,0.8c-1.1,1.1-1.1,2.3-0.1,3.2l2.1,2.1c0.4,0.4,0.8,0.3,1.1,0c0.3-0.3,0.3-0.7,0-1
		l-2.1-2.1c-0.4-0.4-0.4-0.8,0.1-1.2l0.8-0.8C5.9,14,6.3,14,6.7,14.4l2.1,2.1c0.4,0.4,0.8,0.3,1,0C10.1,16.2,10.2,15.8,9.8,15.4
		 M13.7,9.3l-1-1c-1-1-2.1-1-3.2,0.1L8.7,9.2c-1.1,1.1-1.1,2.3-0.1,3.2l3.2,3.2c0.4,0.4,0.8,0.3,1.1,0c0.3-0.3,0.3-0.7,0-1L12,13.8
		c0.2,0,0.4-0.2,0.7-0.5l0.8-0.8C14.7,11.4,14.7,10.3,13.7,9.3 M18.6,4.4l-1-1c-1-1-2.1-1-3.2,0.1l-0.8,0.8
		c-1.1,1.1-1.1,2.3-0.1,3.2l1,1c1,1,2.2,1,3.2-0.1l0.8-0.8C19.6,6.5,19.6,5.3,18.6,4.4"/>
	<path id="XMLID_775_" class="st3" d="M9.8,15.4c0.4,0.4,0.3,0.8,0,1.1c-0.3,0.3-0.7,0.3-1,0l-2.1-2.1C6.3,14,5.9,14,5.5,14.4
		l-0.8,0.8c-0.4,0.4-0.5,0.8-0.1,1.2l2.1,2.1c0.4,0.4,0.3,0.8,0,1c-0.3,0.3-0.7,0.3-1.1,0l-2.1-2.1c-1-1-1-2.2,0.1-3.2l0.8-0.8
		c1.1-1.1,2.3-1.1,3.2-0.1L9.8,15.4z M18.6,4.4c1,1,1,2.2-0.1,3.2l-0.8,0.8c-1.1,1.1-2.3,1.1-3.2,0.1l-1-1c-1-1-1-2.1,0.1-3.2
		l0.8-0.8c1.1-1.1,2.3-1.1,3.2-0.1L18.6,4.4z M17.6,5.4l-0.9-0.9C16.3,4,15.9,4,15.5,4.5l-0.8,0.8c-0.4,0.4-0.5,0.8-0.1,1.2l0.9,0.9
		c0.4,0.4,0.8,0.4,1.2-0.1l0.8-0.8C18,6.1,18,5.8,17.6,5.4 M13.7,9.3c1,1,1,2.2-0.1,3.2l-0.8,0.8c-0.3,0.3-0.5,0.4-0.7,0.5l0.7,0.7
		c0.4,0.4,0.3,0.8,0,1c-0.3,0.3-0.7,0.3-1.1,0l-3.2-3.2c-1-1-1-2.2,0.1-3.2l0.8-0.8c1.1-1.1,2.3-1.1,3.2-0.1L13.7,9.3z M12.7,10.3
		l-0.9-0.9C11.3,9,11,9,10.5,9.4l-0.8,0.8c-0.4,0.4-0.5,0.8-0.1,1.2l0.9,0.9c0.4,0.4,0.8,0.4,1.2-0.1l0.8-0.8
		C13.1,11.1,13.1,10.7,12.7,10.3"/>
	<path id="XMLID_774_" class="st3" d="M16.9,13.9c-1.3,1.3-1.3,2.8,0,4.1l13,13c1.3,1.3,2.8,1.3,4.1,0l13-13c1.3-1.3,1.3-2.8,0-4.1
		l-13-13c-1.3-1.3-2.8-1.3-4.1,0L16.9,13.9z"/>
	<path id="XMLID_773_" class="st0" d="M35.6,21.2c0.9,0,1.4-0.6,1.4-1.3v-4.2c0-0.7-0.5-1.3-1.4-1.3h-7.5c-0.9,0-1.4,0.6-1.4,1.3
		c0,0.7,0.5,1.3,1.4,1.3h5.8c0.2,0,0.3,0.1,0.3,0.3v1c0,0.2-0.1,0.3-0.3,0.3h-5.8c-0.9,0-1.4,0.6-1.4,1.3v4.2c0,0.7,0.5,1.3,1.4,1.3
		l7.5,0c0.9,0,1.4-0.6,1.4-1.3c0-0.7-0.5-1.3-1.4-1.3h-5.8c-0.2,0-0.3-0.1-0.3-0.3v-1c0-0.2,0.1-0.3,0.3-0.3H35.6z"/>
	<path id="XMLID_772_" class="st0" d="M23.9,9.7c0-0.2,0.1-0.3,0.3-0.4c0.4-0.1,0.8-0.2,1.2-0.2c0.2,0,0.4,0,0.5,0
		c0.2,0,0.3,0.1,0.3,0.3c0,0,0,0.1,0,0.1l0,0.1c0,0.2-0.1,0.3-0.3,0.3c-0.1,0-0.3,0-0.5,0c-0.2,0-0.4,0-0.6,0.1v2.6
		c0,0.2-0.1,0.3-0.3,0.3h-0.2c-0.2,0-0.3-0.1-0.3-0.3V9.7z"/>
	<path id="XMLID_769_" class="st0" d="M26.9,9.7c0-0.1,0-0.1,0-0.2c0-0.1,0.1-0.2,0.2-0.3c0.3-0.1,0.8-0.2,1.2-0.2
		c1,0,1.6,0.4,1.6,1.5v1.8c0,0.3-0.1,0.3-0.3,0.4c-0.3,0.1-0.9,0.1-1.3,0.1c-1,0-1.6-0.4-1.6-1.2c0-0.8,0.6-1.2,1.6-1.2
		c0.4,0,0.6,0.1,0.8,0.1v-0.1c0-0.5-0.2-0.7-0.8-0.7c-0.3,0-0.5,0.1-0.7,0.1c-0.1,0-0.1,0-0.2,0C27.1,10,27,10,26.9,9.7L26.9,9.7z
		 M28.9,11.3c-0.2-0.1-0.4-0.1-0.6-0.1c-0.6,0-0.9,0.2-0.9,0.6c0,0.4,0.3,0.5,0.9,0.5c0.2,0,0.4,0,0.6-0.1V11.3z"/>
	<path id="XMLID_766_" class="st0" d="M33.1,8c0-0.2,0.1-0.3,0.3-0.3h0.2C33.9,7.7,34,7.8,34,8v4.4c0,0.2-0.1,0.3-0.3,0.4
		c-0.2,0.1-0.7,0.1-1.1,0.1c-1.3,0-2-0.7-2-1.9c0-1.2,0.7-1.9,1.9-1.9c0.3,0,0.5,0,0.6,0.1V8z M33.1,10c-0.1,0-0.3-0.1-0.5-0.1
		c-0.8,0-1.1,0.5-1.1,1.2c0,0.7,0.3,1.2,1.1,1.2c0.2,0,0.4,0,0.5-0.1V10z"/>
	<path id="XMLID_763_" class="st0" d="M35.4,7.6c0.3,0,0.5,0.2,0.5,0.5c0,0.3-0.2,0.5-0.5,0.5c-0.3,0-0.5-0.2-0.5-0.5
		C34.8,7.8,35.1,7.6,35.4,7.6 M34.9,9.5c0-0.2,0.1-0.3,0.3-0.3h0.2c0.2,0,0.3,0.1,0.3,0.3v3.1c0,0.2-0.1,0.3-0.3,0.3h-0.2
		c-0.2,0-0.3-0.1-0.3-0.3V9.5z"/>
	<path id="XMLID_760_" class="st0" d="M36.7,11.1c0-1.3,0.7-1.9,1.8-1.9c1.1,0,1.8,0.7,1.8,1.9c0,1.3-0.7,1.9-1.8,1.9
		C37.5,13,36.7,12.3,36.7,11.1 M39.5,11.1c0-0.8-0.3-1.2-0.9-1.2c-0.6,0-0.9,0.4-0.9,1.2c0,0.8,0.3,1.2,0.9,1.2
		C39.2,12.2,39.5,11.8,39.5,11.1"/>
</g>
</svg>
